<svg xmlns="http://www.w3.org/2000/svg" xmlns:xlink="http://www.w3.org/1999/xlink" version="1.1" x="0px" y="0px" viewBox="0 0 86.666 108.3325" style="enable-background:new 0 0 86.666 86.666;" xml:space="preserve"><g><path d="M43.332,86.666c23.934,0,43.334-19.4,43.334-43.334C86.666,19.4,67.266,0,43.332,0C19.4,0,0,19.4,0,43.332   C0,67.266,19.4,86.666,43.332,86.666z M23.254,10.803l2.832,4.906l1.949-1.125l-2.836-4.91c5.086-2.747,10.867-4.364,17.01-4.542   v10.58h2.25V5.132c6.143,0.178,11.923,1.795,17.009,4.541l-2.835,4.913l1.947,1.125l2.835-4.908   c5.053,3.126,9.322,7.396,12.448,12.45l-4.906,2.833l1.125,1.949l4.912-2.836c2.745,5.086,4.362,10.867,4.54,17.008H70.955   l-0.002,2.251l10.581-0.001c-0.178,6.143-1.795,11.924-4.541,17.01l-4.911-2.834l-1.125,1.947l4.906,2.833   c-3.126,5.054-7.396,9.323-12.449,12.449l-2.834-4.905l-1.947,1.125l2.835,4.911c-5.086,2.746-10.866,4.362-17.009,4.541V70.954   h-2.25v10.579c-6.143-0.178-11.924-1.795-17.01-4.542l2.834-4.91l-1.947-1.125l-2.831,4.905c-5.054-3.126-9.323-7.396-12.45-12.45   l4.904-2.833l-1.125-1.947l-4.909,2.834C6.929,56.381,5.312,50.6,5.134,44.457l10.579,0.001l-0.002-2.251L5.134,42.208   c0.178-6.142,1.795-11.923,4.541-17.009l4.909,2.834l1.125-1.948l-4.905-2.83C13.931,18.2,18.2,13.93,23.254,10.803z"/><polygon points="36.681,45.779 37.925,47.947 42.794,45.154 47.173,48.55 49.274,45.839 46.012,43.309 68.223,30.57 66.979,28.4    43.875,41.652 26.69,28.326 24.588,31.037 40.658,43.498  "/></g><text x="0" y="101.666" fill="#000000" font-size="5px" font-weight="bold" font-family="'Helvetica Neue', Helvetica, Arial-Unicode, Arial, Sans-serif">Created by Gan Khoon Lay</text><text x="0" y="106.666" fill="#000000" font-size="5px" font-weight="bold" font-family="'Helvetica Neue', Helvetica, Arial-Unicode, Arial, Sans-serif">from the Noun Project</text></svg>