<svg xmlns="http://www.w3.org/2000/svg" version="1.1" viewBox="-5.0 -10.0 110.0 135.0">
 <path d="m50 87.75c20.848 0 37.75-16.902 37.75-37.75s-16.902-37.75-37.75-37.75-37.75 16.902-37.75 37.75 16.902 37.75 37.75 37.75zm0 3.6875c22.887 0 41.438-18.551 41.438-41.438s-18.551-41.438-41.438-41.438-41.438 18.551-41.438 41.438 18.551 41.438 41.438 41.438z" fill-rule="evenodd"/>
 <path d="m43.492 45.887c-0.75391 0.68359-1.9219 0.625-2.6055-0.12891-0.82031-0.90625-2.3555-2.0039-4.168-2.3164-1.6875-0.28906-3.8281 0.058594-6.1484 2.3828-0.72266 0.71875-1.8906 0.71875-2.6094 0-0.71875-0.72266-0.71875-1.8906 0-2.6094 3.125-3.125 6.4531-3.9102 9.3828-3.4062 2.8047 0.48047 5.0391 2.1094 6.2773 3.4727 0.68359 0.75391 0.625 1.918-0.12891 2.6055z" fill-rule="evenodd"/>
 <path d="m34.984 71.109c0.75391 0.68359 1.9219 0.625 2.6055-0.12891 2.1133-2.332 6.0156-5.1406 10.727-5.9492 4.5898-0.78906 10.156 0.26953 15.898 6.0156 0.72266 0.71875 1.8906 0.71875 2.6094 0 0.71875-0.72266 0.71875-1.8906 0-2.6094-6.5469-6.5469-13.305-8.043-19.133-7.043-5.7031 0.98438-10.305 4.3203-12.832 7.1094-0.68359 0.75391-0.62891 1.918 0.125 2.6055z" fill-rule="evenodd"/>
 <path d="m72.637 45.883c-0.75391 0.6875-1.9219 0.62891-2.6055-0.125-0.82031-0.90625-2.3555-2.0039-4.168-2.3164-1.6914-0.28906-3.8281 0.058594-6.1484 2.3789-0.72266 0.72266-1.8906 0.72266-2.6094 0-0.71875-0.71875-0.71875-1.8867 0-2.6055 3.125-3.125 6.4531-3.9141 9.3828-3.4102 2.8047 0.48437 5.0391 2.1094 6.2773 3.4766 0.68359 0.75391 0.625 1.918-0.12891 2.6016z" fill-rule="evenodd"/>
 <path d="m85.66 8.5625h-13.285l-6.4336 11.207h6.4336l-7.4727 11.625 21.797-14.32h-8.5117z"/>
<text x="0.0" y="117.5" font-size="5.0" font-weight="bold" font-family="Arbeit Regular, Helvetica, Arial-Unicode, Arial, Sans-serif" fill="#000000">Created by Aeliz</text><text x="0.0" y="122.5" font-size="5.0" font-weight="bold" font-family="Arbeit Regular, Helvetica, Arial-Unicode, Arial, Sans-serif" fill="#000000">from Noun Project</text></svg>